<svg xmlns="http://www.w3.org/2000/svg" viewBox="0 0 90 90" width="90" height="90">
  <rect x="3" y="23" width="64" height="64" fill="#000B40" fill-opacity="0.28"></rect>
  <rect x="23" y="3" width="64" height="64" fill="#000B40" fill-opacity="0.52"></rect>
  <rect x="13" y="13" width="64" height="64" fill="#000B40" fill-opacity="1"></rect>
  <path d="M39.032 57.705L39.032 57.705Q35.498 57.705 33.030 56.095Q30.563 54.485 29.582 51.685L29.582 51.685L33.047 49.655Q34.517 53.785 39.138 53.785L39.138 53.785Q41.413 53.785 42.550 52.892Q43.688 52 43.688 50.565L43.688 50.565Q43.688 49.060 42.462 48.273Q41.237 47.485 38.123 46.540L38.123 46.540Q36.373 46.015 35.288 45.560Q34.203 45.105 32.995 44.282Q31.787 43.460 31.192 42.235Q30.598 41.010 30.598 39.365L30.598 39.365Q30.598 36.110 32.907 34.203Q35.218 32.295 38.472 32.295L38.472 32.295Q41.413 32.295 43.617 33.730Q45.823 35.165 47.013 37.685L47.013 37.685L43.617 39.645Q42.078 36.215 38.472 36.215L38.472 36.215Q36.722 36.215 35.672 37.037Q34.623 37.860 34.623 39.260L34.623 39.260Q34.623 40.625 35.690 41.412Q36.758 42.200 39.557 43.075L39.557 43.075Q40.957 43.530 41.605 43.758Q42.252 43.985 43.425 44.475Q44.597 44.965 45.192 45.455Q45.788 45.945 46.470 46.680Q47.153 47.415 47.433 48.360Q47.712 49.305 47.712 50.495L47.712 50.495Q47.712 53.820 45.315 55.763Q42.918 57.705 39.032 57.705ZM60.172 39.750L60.172 43.390L55.833 43.390L55.833 51.790Q55.833 52.875 56.323 53.347Q56.813 53.820 57.775 53.873Q58.737 53.925 60.172 53.855L60.172 53.855L60.172 57.250Q55.833 57.775 53.943 56.498Q52.053 55.220 52.053 51.790L52.053 51.790L52.053 43.390L48.833 43.390L48.833 39.750L52.053 39.750L52.053 35.970L55.833 34.850L55.833 39.750L60.172 39.750Z" fill="#F4EDE2"></path>
</svg>